<svg width="419" height="432" viewBox="0 0 419 432" fill="none" xmlns="http://www.w3.org/2000/svg">
<path d="M209.182 0L239.23 36.5804C252.563 52.8123 252.563 76.2055 239.23 92.4374L209.182 129.018L179.134 92.4375C165.8 76.2055 165.8 52.8123 179.134 36.5804L209.182 0Z" fill="white"/>
<path d="M209.5 431.979L116.868 335.014C114.821 332.872 112.324 331.21 109.556 330.151L7.03673 290.914C0.0779569 287.971 -2.21171 279.239 2.40785 273.26L21.9609 247.955C68.3109 187.97 85.084 110.258 67.6015 36.4956L63.5636 19.4587L109.029 86.6595C135.908 126.389 134.489 178.828 105.501 217.045C91.4935 235.512 95.1999 261.853 113.759 275.737C129.793 287.732 189.575 300.517 205.552 303.775C208.184 304.311 210.816 304.311 213.448 303.775C229.425 300.517 289.207 287.732 305.241 275.737C323.8 261.853 327.507 235.512 313.499 217.045C284.511 178.828 283.092 126.389 309.971 86.6595L355.436 19.4587L351.399 36.4956C333.916 110.258 350.689 187.97 397.039 247.955L416.592 273.26C421.212 279.239 418.922 287.971 411.963 290.914L309.444 330.151C306.676 331.21 304.179 332.872 302.132 335.014L209.5 431.979Z" fill="white"/>
</svg>
