<svg width="1100" height="1135" viewBox="0 0 1100 1135" fill="none" xmlns="http://www.w3.org/2000/svg">
<path d="M549.165 0L598.023 59.4784C650.479 123.338 650.479 215.372 598.023 279.232L549.165 338.71L500.308 279.232C447.852 215.372 447.852 123.338 500.308 59.4785L549.165 0Z" fill="#2C3033"/>
<path d="M550 1134.07L310.884 883.773C302.83 875.342 293.004 868.807 282.115 864.639L18.4735 763.735C0.20466 756.01 -5.80641 733.085 6.32132 717.39L57.654 650.956C179.336 493.478 223.371 289.46 177.474 95.8117L166.873 51.085L286.233 227.507C356.8 331.808 353.074 469.476 276.971 569.808C240.198 618.29 249.928 687.441 298.652 723.892C339.159 754.196 486.032 786.42 534.42 796.428C544.767 798.568 555.233 798.568 565.58 796.428C613.968 786.42 760.841 754.196 801.348 723.892C850.072 687.441 859.802 618.29 823.029 569.808C746.926 469.476 743.2 331.808 813.767 227.507L933.127 51.085L922.526 95.8117C876.629 289.46 920.664 493.478 1042.35 650.956L1093.68 717.39C1105.81 733.085 1099.8 756.01 1081.53 763.735L817.885 864.639C806.996 868.807 797.17 875.342 789.116 883.773L550 1134.07Z" fill="#2C3033"/>
</svg>
